<mxfile host="app.diagrams.net" modified="2024-03-27T12:26:29.169Z" agent="Mozilla/5.0 (Windows NT 10.0; Win64; x64) AppleWebKit/537.36 (KHTML, like Gecko) Chrome/123.0.0.0 Safari/537.36" version="24.1.0" etag="BCDOoRWWzXw8Wwu0cZy1" type="github">
  <diagram name="Page-1" id="EkX973uBJ4-KdEPocawQ">
    <mxGraphModel>
      <root>
        <mxCell id="0" />
        <mxCell id="1" parent="0" />
      </root>
    </mxGraphModel>
  </diagram>
</mxfile>
